PathFileType	4	(X/Y/Z)	20_2_24_p1_0-518_filt_butterworth.trc
DataRate	CameraRate	NumFrames	NumMarkers	Units	OrigDataRate	OrigDataStartFrame	OrigNumFrames
60.0	60.0	7	27	m	60.0	0	518
Frame#	Time	RHip			RKnee			RAnkle			RBigToe			RSmallToe			RHeel			LHip			LKnee			LAnkle			LBigToe			LSmallToe			LHeel			Neck			Head			Nose			RShoulder			RElbow			RWrist			RThumb			RIndex			RPinky			LShoulder			LElbow			LWrist			LThumb			LIndex			LPinky			
		X1	Y1	Z1	X2	Y2	Z2	X3	Y3	Z3	X4	Y4	Z4	X5	Y5	Z5	X6	Y6	Z6	X7	Y7	Z7	X8	Y8	Z8	X9	Y9	Z9	X10	Y10	Z10	X11	Y11	Z11	X12	Y12	Z12	X13	Y13	Z13	X14	Y14	Z14	X15	Y15	Z15	X16	Y16	Z16	X17	Y17	Z17	X18	Y18	Z18	X19	Y19	Z19	X20	Y20	Z20	X21	Y21	Z21	X22	Y22	Z22	X23	Y23	Z23	X24	Y24	Z24	X25	Y25	Z25	X26	Y26	Z26	X27	Y27	Z27	
0	0.0	0.3455500057129458	0.5917387162766253	0.9734942109101725	0.3548716814659308	0.705450085479565	1.3540415953169125	0.35248154368719775	0.8122300148997572	1.7416138111653652	0.3127122131941345	0.6435891290490781	1.802540969128437	0.37730978359612705	0.6878698219649975	1.8146345270040787	0.330949692255572	0.892366199020143	1.7863320448246829	0.13905283686511505	0.6049413863549369	0.9814930584107991	0.14162383733744588	0.7114421249857277	1.345542134088307	0.14082482030052162	0.8218605437558753	1.7055156621831462	0.14836118618997696	0.6359859559903286	1.786953330092002	0.09401240695427857	0.6931716115048707	1.794423841747658	0.1536446748882807	0.8841952394046059	1.7614551886589174	0.2494548126460675	0.4610925519660026	0.4406413958878378	0.2569877506441047	0.3444038750765611	0.2141434108993767	0.2348834388900011	0.29854169220395116	0.3339792159849345	0.38565955992363654	0.43766910435846385	0.5267511744139204	0.43961266997017945	0.5083803108615472	0.7959708760695969	0.31763165953642064	0.3873384049870516	0.979616758483797	0.20761446267266803	0.33539635060820694	1.034088820548575	0.20546397518324294	0.3481630312888312	1.0484794582267378	0.23441648584620967	0.36341456487585	1.0599071399232718	0.10857602297877783	0.5027501178502686	0.5211055020428649	0.05695808216974434	0.49298730332722007	0.7757958628159123	0.16957124673573326	0.3306026315079358	0.9577381208124128	0.23358559130992707	0.27518096983869705	1.018789169356017	0.2424103771020416	0.29637444578479594	1.03643856016258	0.22512690267605104	0.38983726860301954	1.054746972532229
1	0.0166666666666666	0.34618942166354316	0.5886427186599955	0.9728020257767633	0.35420859646370007	0.7072516702082412	1.3548081288044975	0.35453094169260685	0.8013888312311817	1.7381010914697455	0.3085159913923563	0.6356260285227758	1.8016971320583577	0.380086657196254	0.6689131572553986	1.806874651457903	0.3336614911970928	0.9028697246681884	1.7902761787146664	0.13702550305706176	0.6049889485039787	0.9784559501829597	0.1440682500422635	0.7174096333661277	1.3443878098945719	0.14112264065083813	0.8208254046744634	1.7078810815573702	0.15084699409676466	0.6263810493053251	1.786311253362935	0.09470722087828967	0.692199788546253	1.7920556376484302	0.1554626015345555	0.8859810533253087	1.7627895871371748	0.24971023199426992	0.46017986477104256	0.4387906509164287	0.2571283431114033	0.344258595138383	0.2142600354502775	0.2335371810019281	0.2980714412811358	0.3339991150387831	0.3856229629562454	0.4376901489276206	0.5267351948367933	0.43967510762806744	0.5006243851342294	0.7956888466012807	0.31735922260184257	0.386384942474857	0.9782182834772082	0.20256130170475717	0.32850864204067404	1.0283978188062992	0.2000290944929845	0.3370537589871633	1.0440185132359316	0.23763230936379248	0.36697195785062203	1.0622954759684744	0.1085969824113863	0.502661949643879	0.5211505704814344	0.05859152510915302	0.49343065852627915	0.7758073876109317	0.1722547955995796	0.3277577743280216	0.957384968202017	0.23214757675807846	0.27354344890069027	1.0156486218707548	0.23989754198179317	0.29162139629096584	1.035885485984346	0.2252599282517152	0.39085271105500374	1.0554572803543862
2	0.0333333333333333	0.34628525838606017	0.5883483250391601	0.9725658315312232	0.35389484776676683	0.7084831275394429	1.3554367838225434	0.35576896737504976	0.7948475522700928	1.7359817695666726	0.30599268544969205	0.6308407794282936	1.801208046084651	0.38179682887620525	0.6577324869226591	1.8022603189162547	0.3352662625393727	0.9091641434886517	1.7936592759820456	0.13610435578740707	0.6049533331349908	0.9763353477405979	0.14456632418328647	0.7182520389157079	1.3431379646052721	0.14131170577967145	0.8201737911264453	1.7092934512412845	0.15233837868362296	0.6205864540540634	1.785920448443915	0.0951383897216663	0.6916405844039383	1.7906441588778352	0.1571204666022593	0.8873773108588892	1.7637633443401306	0.2495011483965548	0.46104770005690465	0.4375621044256499	0.2572592646459281	0.34417007321752935	0.21434149190045093	0.2325378728493481	0.29773862408305446	0.3340118622968442	0.3855958859152316	0.43769908700359256	0.5267330333804201	0.43972989367853166	0.4960211863174886	0.7955846431544281	0.31707943392913074	0.3855303251110638	0.9769407897029688	0.19897794684030623	0.32465130414713256	1.0236011791756454	0.19477835048711406	0.33205414530036365	1.0405018554490366	0.23874253680568108	0.37196976450712455	1.0647113659185543	0.10863662221705782	0.5026002696743646	0.5216051236771378	0.060035174809082006	0.49366191666225917	0.7758074565259874	0.17384030308785525	0.3277947810453	0.9573786152022072	0.23094121208413687	0.27440566700415947	1.0120705537868018	0.23832736203475702	0.2919255791276814	1.0355727807128703	0.2252846979759056	0.3914017695537836	1.0558474358583687
3	0.05	0.34616440306603	0.5883847383332849	0.972523312699981	0.3539449092022798	0.7090565936202899	1.355895953374971	0.3561079276994393	0.7928961994774356	1.7353432811578988	0.30524424312332143	0.6293903330289947	1.8011673522535978	0.38229467996888944	0.6547646358176293	1.8009817846031007	0.33575360044293034	0.910858464612997	1.7957122099702794	0.13604082935667489	0.6048877373345802	0.9757098329983954	0.14324720187703516	0.7143480570066777	1.341953538162327	0.14138039938336217	0.819956904700192	1.709688153168317	0.15275727295836442	0.6189087760382007	1.7857915311342285	0.09528207457460927	0.6915262829667543	1.790277748865757	0.15820233171127765	0.8879206423207899	1.764181367038629	0.2486621335776632	0.4644166391063124	0.4370666529886339	0.2572401703580748	0.3441287783147344	0.2143913884525047	0.23177394081906005	0.29749309366803767	0.3340425828839355	0.3855762839862622	0.4376966850065535	0.526743914338727	0.4398187946347899	0.4946859819377774	0.7955534470721826	0.31685474559135907	0.384997839910706	0.9761232411795784	0.19808638804540823	0.3242991038330902	1.0201254551054229	0.19122296548274195	0.33360750980496606	1.038403281435197	0.23728602749719402	0.37854739520694114	1.0664941219540245	0.10871971710148229	0.5026373846940351	0.5226638600614226	0.06054963966804219	0.49382314751060263	0.7758118169214033	0.17370172995685984	0.3305482692737619	0.9577009858748539	0.2303594042803309	0.2775049331015662	1.0073408979370122	0.23790186651813228	0.2970112740197258	1.0352359215329656	0.22516184816136567	0.3915085570479082	1.055766823727977
4	0.0666666666666666	0.34621103884391125	0.5846212459266773	0.9721391051030911	0.3539918178115993	0.7087958464028459	1.3560138523521377	0.3559618645636339	0.7930631459957825	1.7353870994443055	0.30532131374204474	0.6294844852852226	1.8015869992233644	0.38199331856019914	0.6551634803807411	1.8011113625349937	0.33577570736206086	0.9102293666018413	1.7960736443191876	0.13617559915716315	0.6048906055374593	0.9765651409708657	0.14168403524444714	0.7098998998808055	1.3411830428933589	0.14138597102168138	0.8199774196944458	1.7096048644495334	0.15265512884934251	0.6192677020670303	1.7857939756617554	0.09527619646117813	0.6916169349604295	1.7904512954695149	0.15864058297268904	0.88740543207085	1.7640870781338363	0.24752624647259272	0.4690074644849556	0.43720795568250137	0.2567398644429937	0.3440657078706256	0.21443275398407288	0.2311936965952675	0.29729371210664524	0.334098534303521	0.38555720162171775	0.4376909893822016	0.526755212444516	0.43996877611584456	0.49471267500311744	0.7952021537755074	0.31673261235678746	0.38486894055376725	0.9758898779307107	0.19961713481967502	0.32652021055070635	1.0179707844842945	0.1906158927665681	0.33870820629178267	1.037388315751077	0.23419050849295023	0.3858915309159182	1.0669959851955062	0.10882988937245913	0.502788685429757	0.5240124776574315	0.05945038610991922	0.49478460693173265	0.7758843905290869	0.17174290312019802	0.33493327635864567	0.9582339481590068	0.2305754925775877	0.28075429609980335	1.0018030599029932	0.23819496236012414	0.3037942868882672	1.0347784948263667	0.22492962460940596	0.391562801132221	1.0551758198671797
5	0.0833333333333333	0.34610402561463555	0.5773421969207192	0.971380464072668	0.3534159645750908	0.7066925604714372	1.3552162744666285	0.3557185112891954	0.7934000199503827	1.735495369404346	0.30549163787117106	0.6296497866936953	1.8024826471464928	0.3811122448585148	0.6544258255792588	1.800877847571291	0.3357452145117053	0.9092553091085324	1.7954524776647656	0.1366050736412829	0.6049418685433575	0.9781660674664528	0.14089057711573086	0.7075954489499935	1.3409437089752279	0.14137161279457294	0.8200521386378871	1.7094657236612407	0.15249084501660184	0.6199221374730586	1.7858287197674767	0.09523952623400628	0.6917126542643353	1.790716445612061	0.15900103154110942	0.8861738320630334	1.7636809036606338	0.24654714267712033	0.4725700815574459	0.43795301583080637	0.25551310241347264	0.3439325629496469	0.2144703869404837	0.23090554999640306	0.297173162509383	0.3341461752559165	0.3855352033940168	0.43768264122472844	0.5267583845470489	0.4401245335130276	0.4946876122956717	0.794230824849064	0.3166984270951174	0.3849521409224873	0.9758941938214322	0.20165826334460757	0.3305553582991173	1.0171254583389533	0.1922516927931195	0.34423726574681623	1.0368371278848678	0.2309639652306416	0.39280708991435087	1.0663092371728098	0.10883422038617435	0.5026797391078289	0.5250742493847401	0.05698997051363623	0.4975862267317496	0.776098969808752	0.16843133407055672	0.3408160554852006	0.958960829315635	0.2314277236913665	0.28384227136223394	0.9975007394206732	0.23842998562408388	0.3103291508020225	1.0346146139237393	0.2246585085572924	0.3918250407120926	1.0541095571792942
6	0.1	0.34552168973164377	0.5711745907191526	0.9707095863786335	0.3517983614893415	0.7018195454675461	1.3530132889846798	0.3556656342487118	0.793765829726251	1.7356276130870447	0.3055487455591227	0.6293790510941676	1.8035827843176042	0.37978202585383886	0.6511830924279292	1.7997386246834413	0.33573424427460413	0.9085885509761406	1.7948141465018383	0.137454010054045	0.6049927367282749	0.9794388555313696	0.14076074118043402	0.7071569922980325	1.3410313672066692	0.1413477706194994	0.8201217107400943	1.7093986428473071	0.15241981748871686	0.6202426735744355	1.78584795182951	0.09524640071072464	0.6917582085390794	1.7908754109182317	0.15987699267676203	0.8849273612194554	1.7632100524732144	0.24565245445129774	0.47416277654881767	0.43901071020124904	0.2539043359153513	0.34377554785888836	0.2144867005542696	0.2308430548022189	0.2971226025243874	0.334161743088888	0.38551056538014034	0.4376666980101238	0.5267549553270253	0.44023846354288243	0.494449337611903	0.7929302560853264	0.3167350652288643	0.38496964561622926	0.9755770920190389	0.20232335289264647	0.3350369089585775	1.0173020026588138	0.19419675719354781	0.3477939970243601	1.0364744851253063	0.22886906273258303	0.3979926561683869	1.0652321453372278	0.10846585409933779	0.501355818439223	0.5256261613766852	0.05426197631165484	0.5021016316349152	0.7764444669717153	0.16441940930151974	0.34826185987870445	0.9598310630422697	0.232504855731756	0.28730121697212	0.9956605867901114	0.2381831928883675	0.31481949129010117	1.0348147289631016	0.22443847491940538	0.3921766153160054	1.052886638941494
